<svg version="1.1" id="Layer_1" xmlns="http://www.w3.org/2000/svg" x="0" y="0" viewBox="0 0 100 45.92" xml:space="preserve"><style>.st0{fill:#197d9f}</style><path class="st0" d="M45.77 22.96C45.77 10.28 35.54 0 22.93 0h-.09C10.22 0 0 10.28 0 22.96c0 8.18 3.44 12.27 6.98 12.17.14 0 .28 0 .42-.02 2.21-.22 4.76-2.37 4.76-7.21v-6.08c0-5.96 4.8-10.78 10.73-10.78 5.92 0 10.73 4.83 10.73 10.78v7.27c0 1.78-1.44 3.23-3.21 3.23-1.78 0-3.21-1.44-3.22-3.23v-7.27c0-2.36-1.9-4.27-4.25-4.27h-.09c-2.35 0-4.25 1.91-4.25 4.27v6.08c0 3.7-1.04 6.96-3.01 9.43-1.6 2.04-3.83 3.47-6.34 4.07 3.93 2.94 8.7 4.52 13.6 4.52h.09c12.6 0 22.83-10.28 22.83-22.96zM57.18 32.02V23h.98l.12 1.42h.12c.25-.41.54-.73.86-.97.32-.23.67-.4 1.04-.51.37-.1.77-.15 1.19-.15.57 0 1.07.09 1.5.28.43.19.76.49 1 .92.24.42.36 1 .36 1.73v6.29h-1.23v-6.17c0-.4-.05-.73-.15-.98-.1-.25-.25-.45-.43-.59-.18-.14-.4-.24-.64-.3-.25-.06-.52-.09-.82-.09-.46 0-.89.11-1.3.33-.41.22-.73.54-.99.95-.25.41-.38.91-.38 1.51V32h-1.23zM69.77 32.23c-.35 0-.7-.04-1.05-.13-.34-.09-.65-.22-.92-.41a1.99 1.99 0 01-.64-.76c-.16-.32-.24-.71-.24-1.18 0-.62.15-1.12.45-1.52.3-.39.73-.7 1.28-.93.55-.22 1.2-.37 1.95-.45.75-.08 1.56-.12 2.44-.12v-1.15c0-.37-.07-.68-.2-.93-.13-.26-.36-.46-.69-.6-.33-.14-.79-.21-1.38-.21-.57 0-1.02.07-1.36.22-.33.15-.56.34-.69.57-.13.23-.2.49-.2.78v.27h-1.18c-.01-.06-.02-.11-.02-.17v-.21c0-.57.15-1.04.45-1.41.3-.37.72-.64 1.27-.82.55-.18 1.18-.27 1.89-.27.72 0 1.33.11 1.82.32.49.21.87.51 1.13.9.26.39.39.86.39 1.41v5.18c0 .22.04.37.13.45.09.09.2.13.35.13h.72v.79c-.17.07-.35.13-.54.17-.19.05-.39.07-.59.07-.3 0-.53-.06-.71-.19-.18-.13-.3-.3-.38-.53-.07-.23-.12-.48-.15-.75h-.12c-.22.31-.49.57-.83.8-.34.22-.71.39-1.11.51-.39.11-.82.17-1.27.17zm.25-1.05c.38 0 .74-.06 1.1-.19.35-.13.67-.3.96-.52.29-.22.52-.49.69-.8.18-.31.27-.65.27-1.03v-.93c-1.06 0-1.95.06-2.67.17-.71.11-1.25.31-1.61.6-.36.29-.54.69-.54 1.2 0 .34.08.63.23.85.16.22.37.39.64.49.28.11.59.16.93.16zM77.62 32.02v-12.4h1.23v12.4h-1.23zM84.91 32.23c-.86 0-1.55-.22-2.08-.65-.53-.43-.79-1.19-.79-2.28V23h1.23v6.17c0 .4.05.73.16.98.1.25.25.45.43.59.18.14.4.24.64.3.25.06.51.09.8.09.46 0 .89-.11 1.29-.33.41-.22.73-.54.99-.96.25-.42.38-.92.38-1.5V23h1.23v9.02h-.96l-.13-1.42h-.12c-.25.41-.53.73-.85.97-.31.23-.66.4-1.03.51s-.77.15-1.19.15zM92.47 32.02V23h.99l.1 1.51h.12c.08-.27.2-.54.36-.81.16-.26.38-.48.65-.65.27-.17.62-.26 1.05-.26.16 0 .31.01.45.04s.24.05.31.08v1.13h-.53c-.4 0-.74.07-1.03.21-.29.14-.52.35-.7.61s-.32.56-.4.9c-.08.34-.13.69-.13 1.05v5.2h-1.24zM98.77 21.15v-1.53H100v1.53h-1.23zm0 10.87V23H100v9.02h-1.23z"/></svg>